PathFileType	4	(X/Y/Z)	Patient4_TMGait_0pt3_03_right_02.trc.trc
DataRate	CameraRate	NumFrames	NumMarkers	Units	OrigDataRate	OrigDataStartFrame	OrigNumFrames
52.631578947368	52.631578947368	4	33	mm	52.631578947368	71	       141
Frame#	Time	Sacral			L.Shoulder			Chest			R.Shoulder			Neck			R.ASIS			L.ASIS			R.Thigh.Superior			R.Thigh.Lateral			R.Thigh.Inferior			R.Patella			L.Thigh.Superior			L.Thigh.Lateral			L.Thigh.Inferior			L.Patella			L.Shank.Superior			L.Shank.Lateral			L.Shank.Inferior			R.Shank.Superior			R.Shank.Lateral			R.Shank.Inferior			R.Heel			R.Midfoot.Superior			R.Midfoot.Lateral			R.Toe			L.Heel			L.Midfoot.Lateral			L.Midfoot.Superior			L.Toe			L.Elbow			L.Wrist			R.Elbow			R.Wrist			
		X1	Y1	Z1	X2	Y2	Z2	X3	Y3	Z3	X4	Y4	Z4	X5	Y5	Z5	X6	Y6	Z6	X7	Y7	Z7	X8	Y8	Z8	X9	Y9	Z9	X10	Y10	Z10	X11	Y11	Z11	X12	Y12	Z12	X13	Y13	Z13	X14	Y14	Z14	X15	Y15	Z15	X16	Y16	Z16	X17	Y17	Z17	X18	Y18	Z18	X19	Y19	Z19	X20	Y20	Z20	X21	Y21	Z21	X22	Y22	Z22	X23	Y23	Z23	X24	Y24	Z24	X25	Y25	Z25	X26	Y26	Z26	X27	Y27	Z27	X28	Y28	Z28	X29	Y29	Z29	X30	Y30	Z30	X31	Y31	Z31	X32	Y32	Z32	X33	Y33	Z33	

71	4.930000000000	746.433738240922	1005.111336141923	593.132470629270	894.838224774937	1432.228704434531	394.515438554338	1025.116995208103	1360.137899688360	533.441285974867	976.889610576792	1435.430311109074	717.750870128867	903.170590683786	1490.915343359499	552.985969794312	984.785291846963	930.614136849014	677.554341289111	939.251665089175	964.611545632202	408.366285612822	993.149441686717	723.020817988141	637.138956956882	901.565863482757	618.125892904047	697.550248791571	964.472686707399	562.176848034291	610.416382396726	951.848532433371	470.510179061796	612.804467186716	1012.327168198152	768.897982245001	432.623760280854	955.552550028591	646.431327683308	348.857359888281	1054.351593705494	581.505692816831	409.888173497189	1075.847069915882	515.738613601350	404.719639389052	1056.590888932609	444.881390043097	388.823140928324	986.185860047838	322.310712631095	326.251140481659	1065.416305099478	214.877970398452	378.051914433398	903.910316188551	388.232524654252	615.665480074044	815.763933780677	296.823755735440	677.035287397972	834.201520426876	200.803461227993	605.213913571150	669.434331145814	51.049431257453	574.740502965509	845.701187766820	97.228076363243	606.755862036271	754.762628517304	39.691332498228	645.861432917552	962.281553112554	38.430230580592	629.785660754788	968.924377329441	40.784011401204	402.740557616915	1046.275816308433	44.177088431655	325.945594520522	1121.266094147196	115.999572669100	353.203543701990	1253.179703127793	79.706743476318	330.142576267651	743.188894362256	1118.308767791633	296.886210556478	714.390887219133	859.996115507399	339.521028788735	1184.877648171855	1181.385282387853	827.821352051756	1358.044506797357	1338.494218274042	739.912379149226	
72	4.949000000000	745.983994663340	1003.352422883589	591.126022155487	891.815927623669	1430.301162871748	390.939544262596	1023.017622002699	1359.101517503325	529.447873582942	975.324101891375	1434.565905168803	713.804199288364	900.809904994315	1489.555347707437	549.307738734321	984.777063089599	929.817832431171	675.286013273529	938.437534636328	962.652193903673	405.988897397102	991.387614377294	721.727562991711	635.380856309153	898.789713568968	617.509139639770	696.259545272572	960.763278500839	560.902614732021	609.196306899779	947.107171373558	469.399384515276	611.617381021559	1012.025320967941	766.889195916555	430.230504918610	953.716971030740	643.813209679118	348.009990654130	1053.492453590531	579.628870036563	408.055542394693	1074.212401956238	513.489676079889	403.584092336559	1055.208662075803	442.428817544580	388.013852906990	984.395883569773	319.835329765812	326.281123174141	1063.447840149595	212.534959072908	378.355322019307	899.113163050201	387.359506402599	614.783029113961	810.736512190202	296.326648417743	676.468647061069	828.601657762881	200.131172482085	604.719767618786	663.556052500217	50.401111239284	574.644460872057	839.675811625871	97.047762704785	606.572224150179	748.894845955690	39.382321277094	645.821980099567	956.467836481003	38.502349167807	629.772176571623	966.060509544950	39.743203828965	403.465041309477	1043.372430967428	42.651316434795	326.568412697909	1119.077718747339	113.411000104199	354.104843812571	1250.575980137252	75.731025037540	330.863917986580	740.035199623800	1115.991551565842	295.804663313729	710.985890310718	857.898455285130	340.388728130896	1187.591224087535	1184.832418604884	823.261149075899	1357.101687604818	1345.629343570548	735.160997888571	
73	4.968000000000	745.619278184103	1001.541410029878	588.900598208629	889.069068353907	1428.193232230484	387.028911002983	1021.103615611387	1357.931064198587	525.210562851747	973.891769916327	1433.607651392346	709.601372055120	898.671518176883	1488.119934616215	545.278857022633	984.887724898554	928.958173363108	672.830624084467	937.730147181165	960.617110163428	403.411552580986	990.070753102649	720.440039925229	633.459189858895	896.598382889341	616.792077231709	694.748406286157	957.766400823989	559.594761441596	607.770070510345	943.147109050392	468.150597438347	610.238586902244	1011.964103242973	764.965827094199	427.828416752207	952.437967537827	641.305240793906	347.144907298730	1053.124185545782	577.846367254818	406.319521991699	1073.045163868135	511.173284849041	402.442374127004	1054.070555639969	439.868930867540	387.192061818886	982.443859575675	317.465597821784	326.290241702679	1060.929496973216	210.039062056618	378.693213304195	894.913750055089	386.374728414654	613.723004295219	806.181237346928	295.903531326452	675.782912825544	823.281424692490	199.476270241199	604.175773884087	657.728578359064	50.005089530701	574.590970279756	833.729984143919	96.907378394425	606.406465703060	743.070736447711	39.198919266622	645.811235669906	950.679379107903	38.538530941707	629.763792541318	961.982728802362	38.904794940458	404.139279574400	1039.321547429358	41.110198587915	327.188252303033	1115.945203397746	110.540773095880	355.124861465419	1246.951981585989	71.060827997391	331.806235673907	737.750593588234	1113.063187196533	294.448605408819	708.545563184653	855.181191487425	340.627920762871	1189.363197739693	1187.260982940285	818.691586236395	1356.117829598452	1350.780125072305	730.490534177717	
74	4.987000000000	745.348380863211	999.818827585514	586.454836470993	886.609976930520	1426.069562657335	382.821995200011	1019.393642124672	1356.757166363655	520.749650257899	972.626740014684	1432.685701333833	705.162341787722	896.764700093091	1486.731162956334	540.937641355671	985.107378849889	928.135644278419	670.170901087884	937.128574073085	958.662433711719	400.625629177368	989.162329315743	719.235000894253	631.384123889029	894.948577925235	616.061786549802	693.031067887610	955.454783010229	558.325998589890	606.169969252101	939.940160488401	466.848166328725	608.717865640026	1012.117003487934	763.275805886845	425.414437094199	951.735576286475	639.079743849745	346.172804515268	1053.207167102777	576.282264697791	404.634917180351	1072.332102570856	508.959192505108	401.249936592588	1053.203521242221	437.377354272415	386.308970917018	980.478152526649	315.333691818341	326.165919257982	1058.046762099255	207.573966402624	378.993891426499	891.285196481550	385.361913646087	612.526139869251	802.062359969138	295.637014404846	674.999331629497	818.252076924896	198.917953017735	603.619575542330	651.972067318191	49.955841132929	574.590491350537	827.907870475121	96.830238791667	606.279366584940	737.306019351647	39.187864242782	645.833209878017	944.924187264986	38.528137110770	629.765383221485	957.037289099058	38.292973901230	404.696894304170	1034.465630323388	39.662273645086	327.740551419001	1112.096450699307	107.639707421508	356.162075706508	1242.592007799138	66.162264725934	332.880204440558	736.274401350580	1109.779075122495	292.747049734990	707.088063586603	852.077181438485	340.166318273044	1190.320204120022	1188.805557624470	814.117917270432	1355.233469087849	1354.157364294366	725.880460375663	
